# Blender 3.5.1
# www.blender.org
mtllib panel.mtl
o Cube
v -0.656847 0.589328 -2.428452
v -0.814243 0.596696 -2.237066
v 1.214044 0.501750 0.668186
v 1.323406 0.496631 0.558705
v -1.491691 0.628407 0.578319
v -1.420978 0.625097 0.668186
v 1.323406 0.496631 -3.263777
v 1.257200 0.499730 -3.306315
v -0.756399 0.593988 -2.605736
v -0.821774 0.499631 -2.684876
v -0.934725 0.602336 -2.388899
v -1.028538 0.509310 -2.433460
v 1.487185 0.488964 -3.552142
v 1.579839 0.387210 -3.605316
v 1.412175 0.492476 -3.600337
v 1.415427 0.394906 -3.710953
v -1.702260 0.638264 0.800871
v -1.812358 0.546001 0.823991
v -1.622144 0.634514 0.902689
v -1.673864 0.539518 1.000000
v 1.363281 0.494764 0.902689
v 1.398994 0.395676 1.000000
v 1.487185 0.488964 0.778649
v 1.579839 0.387210 0.818957
v 1.207688 0.365962 0.668186
v -1.427334 0.489309 0.668186
v -1.498047 0.492619 0.578319
v -0.820599 0.460907 -2.237066
v 1.317050 0.360843 -3.263777
v 1.317050 0.360843 0.558705
v -0.663203 0.453539 -2.428452
v 1.250844 0.363942 -3.306315
vn 0.7712 -0.0361 0.6356
vn 0.0468 0.9989 -0.0000
vn 0.4146 0.6885 -0.5951
vn -0.5218 0.7323 0.4376
vn 0.5325 0.6830 0.5000
vn -0.5122 0.7319 -0.4494
vn -0.2611 0.7201 -0.6429
vn 0.7394 0.6733 -0.0000
vn -0.6536 0.7385 -0.1656
vn 0.0331 0.7063 0.7071
vn -0.5395 0.0253 0.8416
vn 0.4161 -0.0195 0.9091
vn -0.9989 0.0468 -0.0000
vn -0.0000 -0.0000 -1.0000
vn -0.7063 0.0331 -0.7071
vn 0.9711 -0.0455 0.2342
vn 0.7847 -0.0367 -0.6188
vt 0.747077 0.642666
vt 0.703531 0.678847
vt 0.123061 0.246965
vt 0.149182 0.218694
vt 0.123000 0.765528
vt 0.097480 0.745871
vt 0.873916 0.224577
vt 0.888697 0.243617
vt 0.781946 0.663561
vt 0.807512 0.682690
vt 0.735175 0.703564
vt 0.748545 0.731867
vt 0.943294 0.187210
vt 0.959579 0.160102
vt 0.953929 0.201572
vt 0.985386 0.197032
vt 0.064540 0.809736
vt 0.055088 0.839898
vt 0.044885 0.791599
vt 0.016517 0.805433
vt 0.078966 0.211860
vt 0.051620 0.198139
vt 0.103359 0.187862
vt 0.092132 0.160102
vt 0.148064 0.261428
vt 0.121125 0.725238
vt 0.136465 0.737168
vt 0.688819 0.654772
vt 0.850386 0.249947
vt 0.166645 0.242591
vt 0.723953 0.624481
vt 0.858959 0.260558
s 0
usemtl Material
f 1/1/1 2/2/1 28/28/1 31/31/1
f 15/15/2 9/9/2 1/1/2 8/8/2
f 15/15/3 13/13/3 14/14/3 16/16/3
f 19/19/4 17/17/4 18/18/4 20/20/4
f 23/23/5 21/21/5 22/22/5 24/24/5
f 11/11/6 9/9/6 10/10/6 12/12/6
f 9/9/7 15/15/7 16/16/7 10/10/7
f 24/24/8 14/14/8 13/13/8 23/23/8
f 12/12/9 18/18/9 17/17/9 11/11/9
f 20/20/10 22/22/10 21/21/10 19/19/10
f 17/17/2 19/19/2 6/6/2 5/5/2
f 19/19/2 21/21/2 3/3/2 6/6/2
f 13/13/2 15/15/2 8/8/2 7/7/2
f 11/11/2 17/17/2 5/5/2 2/2/2
f 23/23/2 13/13/2 7/7/2 4/4/2
f 9/9/2 11/11/2 2/2/2 1/1/2
f 21/21/2 23/23/2 4/4/2 3/3/2
f 29/29/2 32/32/2 31/31/2 28/28/2 27/27/2 26/26/2 25/25/2 30/30/2
f 7/7/11 8/8/11 32/32/11 29/29/11
f 8/8/12 1/1/12 31/31/12 32/32/12
f 4/4/13 7/7/13 29/29/13 30/30/13
f 6/6/14 3/3/14 25/25/14 26/26/14
f 3/3/15 4/4/15 30/30/15 25/25/15
f 2/2/16 5/5/16 27/27/16 28/28/16
f 5/5/17 6/6/17 26/26/17 27/27/17
