# Blender 3.5.1
# www.blender.org
mtllib Submarine Game tablev1.mtl
o Game_Table.001
v 1.070933 -0.480802 0.017495
v -0.507544 -0.480802 0.017496
v -0.478574 -0.480802 -0.311796
v -0.387651 -0.480802 -0.611530
v -0.240000 -0.480802 -0.887766
v -0.041295 -0.480802 -1.129889
v 0.200829 -0.480802 -1.328594
v 0.477065 -0.480802 -1.476245
v 1.070933 -0.480802 -1.596139
v 0.776798 -0.480802 -1.567169
v -0.478574 -0.480802 0.311630
v -0.387651 -0.480802 0.611364
v -0.240000 -0.480802 0.887600
v -0.041294 -0.480802 1.129723
v 0.200829 -0.480802 1.328428
v 0.477065 -0.480802 1.476080
v 1.070933 -0.480802 1.595973
v 0.776799 -0.480802 1.567003
v 0.461346 -0.480802 0.006751
v -0.031731 -0.480802 0.006751
v -0.022681 -0.480802 -0.096111
v 0.005721 -0.480802 -0.189740
v 0.051843 -0.480802 -0.276029
v 0.113914 -0.480802 -0.351663
v 0.189547 -0.480802 -0.413733
v 0.275836 -0.480802 -0.459856
v 0.461346 -0.480802 -0.497307
v 0.369466 -0.480802 -0.488258
v -0.022681 -0.480802 0.098631
v 0.005721 -0.480802 0.192261
v 0.051844 -0.480802 0.278550
v 0.113914 -0.480802 0.354183
v 0.189547 -0.480802 0.416253
v 0.275836 -0.480802 0.462376
v 0.461346 -0.480802 0.499828
v 0.369466 -0.480802 0.490778
v 0.461346 -1.129950 0.006751
v -0.031731 -1.129950 0.006751
v -0.022681 -1.129950 -0.096111
v 0.005721 -1.129950 -0.189740
v 0.051843 -1.129950 -0.276029
v 0.113914 -1.129950 -0.351663
v 0.189547 -1.129950 -0.413733
v 0.275836 -1.129950 -0.459856
v 0.461346 -1.129950 -0.497307
v 0.369466 -1.129950 -0.488258
v -0.022681 -1.129950 0.098631
v 0.005721 -1.129950 0.192261
v 0.051844 -1.129950 0.278550
v 0.113914 -1.129950 0.354183
v 0.189547 -1.129950 0.416253
v 0.275836 -1.129950 0.462376
v 0.461346 -1.129950 0.499828
v 0.369466 -1.129950 0.490778
v 0.775485 -0.315446 0.064348
v 0.775485 -0.315446 -0.029357
v 0.994947 -0.358311 0.017495
v -0.412450 -0.315446 0.056756
v -0.584327 -0.357027 0.017496
v -0.412911 -0.315446 -0.023365
v -0.555314 -0.357096 -0.311796
v -0.390776 -0.315446 -0.274958
v -0.464268 -0.357294 -0.611530
v -0.311177 -0.315446 -0.537364
v -0.316431 -0.357595 -0.887766
v -0.181435 -0.315446 -0.780094
v -0.117503 -0.357953 -1.129889
v -0.006832 -0.315446 -0.992849
v 0.124836 -0.358301 -1.328594
v 0.205923 -0.315446 -1.167452
v 0.401230 -0.358556 -1.476245
v 0.448653 -0.315446 -1.297194
v 0.775486 -0.315446 -1.383339
v 0.995023 -0.358433 -1.596139
v 0.701007 -0.358626 -1.567169
v 0.712030 -0.315446 -1.377089
v -0.555314 -0.357096 0.311630
v -0.391071 -0.315446 0.273821
v -0.311176 -0.315446 0.537199
v -0.464268 -0.357294 0.611364
v -0.181435 -0.315446 0.779928
v -0.316430 -0.357595 0.887600
v -0.006831 -0.315446 0.992683
v -0.117503 -0.357953 1.129723
v 0.205924 -0.315446 1.167286
v 0.124837 -0.358301 1.328428
v 0.448653 -0.315446 1.297028
v 0.401231 -0.358556 1.476080
v 0.995023 -0.358433 1.595973
v 0.775486 -0.315446 1.383173
v 0.712032 -0.315446 1.376923
v 0.701008 -0.358626 1.567003
v -0.537063 -0.327185 -0.027931
v -0.536544 -0.327191 0.062687
v -0.562631 -0.369228 0.017379
v 0.923213 -0.333273 -1.527158
v 0.996732 -0.376260 -1.578851
v -0.533677 -0.368609 -0.307454
v -0.513198 -0.326935 -0.298801
v -0.444260 -0.369353 -0.602938
v -0.426466 -0.327418 -0.585421
v -0.298947 -0.370497 -0.875624
v -0.285437 -0.328179 -0.850050
v -0.103249 -0.371912 -1.115005
v -0.095572 -0.329160 -1.082239
v 0.135421 -0.373434 -1.311905
v 0.135924 -0.330283 -1.273115
v 0.407991 -0.374885 -1.458717
v 0.400264 -0.331464 -1.415350
v 0.704049 -0.376095 -1.549701
v 0.687405 -0.332623 -1.503430
v 0.996733 -0.376260 1.578686
v 0.923214 -0.333273 1.526992
v -0.533699 -0.368610 0.307179
v -0.513292 -0.326935 0.298282
v -0.426465 -0.327417 0.585255
v -0.444259 -0.369353 0.602773
v -0.285437 -0.328179 0.849885
v -0.298946 -0.370497 0.875459
v -0.095571 -0.329160 1.082073
v -0.103249 -0.371912 1.114839
v 0.135924 -0.330283 1.272949
v 0.135422 -0.373434 1.311739
v 0.400264 -0.331464 1.415184
v 0.407991 -0.374885 1.458551
v 0.687406 -0.332623 1.503264
v 0.704049 -0.376095 1.549535
v 0.921504 -0.315446 0.064348
v 0.921504 -0.315446 -0.029357
v -0.558966 -0.315446 -0.029357
v -0.558428 -0.315446 0.064348
v 0.921504 -0.315446 -1.544445
v -0.534905 -0.315446 -0.302847
v -0.446733 -0.315446 -0.593513
v -0.303432 -0.315446 -0.861610
v -0.110582 -0.315446 -1.096599
v 0.124407 -0.315446 -1.289449
v 0.392504 -0.315446 -1.432750
v 0.683406 -0.315446 -1.520995
v 0.921504 -0.315446 1.544280
v -0.534977 -0.315446 0.302445
v -0.446733 -0.315446 0.593348
v -0.303432 -0.315446 0.861445
v -0.110582 -0.315446 1.096433
v 0.124408 -0.315446 1.289284
v 0.392504 -0.315446 1.432584
v 0.683407 -0.315446 1.520829
v 0.775485 -0.329965 0.064348
v -0.412450 -0.329965 0.056756
v -0.412911 -0.329965 -0.023365
v 0.775485 -0.329965 -0.029357
v 0.775486 -0.329965 -1.383339
v -0.390776 -0.329965 -0.274958
v -0.311177 -0.329965 -0.537364
v -0.181435 -0.329965 -0.780094
v -0.006832 -0.329965 -0.992849
v 0.205923 -0.329965 -1.167452
v 0.448653 -0.329965 -1.297194
v 0.712030 -0.329965 -1.377089
v 0.775486 -0.329965 1.383173
v -0.391071 -0.329965 0.273821
v -0.311176 -0.329965 0.537199
v -0.181435 -0.329965 0.779928
v -0.006831 -0.329965 0.992683
v 0.205924 -0.329965 1.167286
v 0.448653 -0.329965 1.297028
v 0.712032 -0.329965 1.376923
vn 0.6976 0.7165 -0.0000
vn 0.8498 0.5271 -0.0000
vn 0.7341 0.6791 -0.0000
vn -0.0000 -1.0000 -0.0000
vn -0.5443 -0.3377 -0.7679
vn -0.5044 -0.3129 -0.8048
vn -0.6339 -0.3932 -0.6660
vn -0.6599 -0.4093 -0.6301
vn -0.8046 -0.4991 0.3218
vn -0.7982 -0.4951 0.3431
vn -0.7313 -0.4536 0.5094
vn -0.7458 -0.4627 0.4793
vn -0.3985 -0.2472 -0.8832
vn -0.3444 -0.2137 -0.9142
vn -0.8046 -0.4991 -0.3218
vn -0.7982 -0.4952 -0.3431
vn -0.8377 -0.5196 -0.1681
vn -0.8392 -0.5206 -0.1569
vn -0.6339 -0.3932 0.6660
vn -0.6599 -0.4093 0.6301
vn -0.2256 -0.1399 -0.9641
vn -0.1606 -0.0996 -0.9820
vn -0.5044 -0.3129 0.8048
vn -0.5443 -0.3377 0.7679
vn -0.0978 -0.0607 -0.9934
vn -0.8498 -0.5271 0.0046
vn -0.8498 -0.5271 0.0043
vn -0.3444 -0.2137 0.9142
vn -0.3985 -0.2472 0.8832
vn -0.8386 -0.5202 0.1614
vn -0.8371 -0.5193 0.1724
vn -0.1606 -0.0996 0.9820
vn -0.2256 -0.1399 0.9641
vn -0.7458 -0.4627 -0.4793
vn -0.7313 -0.4536 -0.5094
vn -0.0978 -0.0607 0.9934
vn 0.9239 -0.0000 -0.3827
vn 0.9808 -0.0000 -0.1951
vn 1.0000 -0.0000 -0.0000
vn -0.1951 -0.0000 -0.9808
vn -0.3827 -0.0000 -0.9239
vn -0.3827 -0.0000 0.9239
vn -0.1951 -0.0000 0.9808
vn -0.0980 -0.0000 -0.9952
vn -0.0980 -0.0000 0.9952
vn -0.9239 -0.0000 -0.3827
vn -0.9818 -0.0000 -0.1900
vn -1.0000 -0.0000 0.0052
vn -0.9808 -0.0000 0.1951
vn -0.9239 -0.0000 0.3827
vn -0.8315 -0.0000 -0.5556
vn -0.8315 -0.0000 0.5556
vn -0.7071 -0.0000 -0.7071
vn -0.7071 -0.0000 0.7071
vn -0.5556 -0.0000 -0.8315
vn -0.5556 -0.0000 0.8315
vn 0.2612 0.9653 -0.0000
vn 0.4333 0.8535 -0.2894
vn 0.4336 0.8537 -0.2885
vn 0.4508 0.8730 -0.1860
vn 0.4508 0.8729 -0.1866
vn 0.9987 -0.0000 -0.0519
vn 0.3078 0.9515 -0.0000
vn -0.4470 -0.8752 -0.1849
vn -0.4469 -0.8751 -0.1856
vn -0.4598 -0.8835 -0.0892
vn -0.4599 -0.8835 -0.0889
vn -0.1348 -0.7285 0.6716
vn -0.1332 -0.7281 0.6724
vn -0.3926 -0.6654 0.6349
vn -0.3926 -0.6654 0.6348
vn 0.2510 0.7543 0.6066
vn 0.2522 0.7548 0.6055
vn 0.1362 0.7204 0.6800
vn 0.1347 0.7201 0.6806
vn 0.1347 0.7201 -0.6806
vn 0.1362 0.7204 -0.6800
vn 0.2522 0.7548 -0.6055
vn 0.2510 0.7543 -0.6066
vn -0.2472 -0.7653 -0.5943
vn -0.2459 -0.7648 -0.5955
vn -0.3314 -0.8019 -0.4972
vn -0.3323 -0.8023 -0.4959
vn -0.4470 -0.8752 0.1849
vn -0.4469 -0.8751 0.1856
vn -0.4271 -0.8577 0.2861
vn -0.4274 -0.8579 0.2851
vn 0.4664 0.8800 0.0901
vn 0.4665 0.8799 0.0898
vn 0.4509 0.8730 0.1860
vn 0.4508 0.8729 0.1866
vn 0.4661 0.8799 -0.0923
vn 0.4660 0.8799 -0.0926
vn -0.4693 -0.8828 -0.0191
vn -0.4692 -0.8829 -0.0197
vn -0.2472 -0.7653 0.5943
vn -0.2459 -0.7648 0.5955
vn 0.3384 0.7930 0.5065
vn 0.3393 0.7935 0.5053
vn 0.3393 0.7935 -0.5053
vn 0.3384 0.7930 -0.5065
vn -0.3905 -0.8332 -0.3915
vn -0.3911 -0.8335 -0.3903
vn -0.4595 -0.8835 0.0913
vn -0.4595 -0.8834 0.0917
vn 0.4766 0.8791 -0.0026
vn 0.4766 0.8791 -0.0025
vn -0.3323 -0.8023 0.4959
vn -0.3313 -0.8019 0.4972
vn 0.9818 -0.0000 0.1900
vn 0.9239 -0.0000 0.3827
vn -0.8787 0.4729 0.0660
vn -0.8794 0.4727 -0.0565
vn -0.8722 0.4892 0.0047
vn -0.8716 0.4624 -0.1628
vn -0.8690 0.4632 -0.1739
vn -0.8139 0.4812 -0.3255
vn -0.8040 0.4846 -0.3447
vn -0.7225 0.5118 -0.4648
vn -0.7028 0.5184 -0.4872
vn -0.6024 0.5512 -0.5773
vn -0.5732 0.5607 -0.5975
vn -0.4620 0.5963 -0.6565
vn -0.4259 0.6078 -0.6703
vn -0.3112 0.6437 -0.6992
vn -0.2722 0.6558 -0.7042
vn -0.1600 0.6901 -0.7058
vn -0.1226 0.7015 -0.7021
vn -0.0684 0.7159 -0.6948
vn -0.8707 0.4623 0.1675
vn -0.8681 0.4632 0.1783
vn -0.8040 0.4846 0.3447
vn -0.8139 0.4812 0.3255
vn -0.7028 0.5184 0.4872
vn -0.7225 0.5118 0.4648
vn -0.5732 0.5607 0.5975
vn -0.6024 0.5512 0.5773
vn -0.4259 0.6078 0.6703
vn -0.4620 0.5963 0.6565
vn -0.2722 0.6558 0.7042
vn -0.3112 0.6437 0.6992
vn -0.1226 0.7015 0.7020
vn -0.1600 0.6901 0.7058
vn -0.0684 0.7159 0.6948
vn -0.4691 -0.8828 0.0242
vn -0.4690 -0.8829 0.0248
vn 0.0699 0.7047 -0.7061
vn 0.4336 0.8537 0.2885
vn 0.4333 0.8535 0.2894
vn -0.3905 -0.8332 0.3915
vn -0.3911 -0.8335 0.3902
vn -0.1348 -0.7285 -0.6716
vn -0.1332 -0.7281 -0.6724
vn 0.0699 0.7047 0.7061
vn -0.4274 -0.8579 -0.2851
vn -0.4271 -0.8577 -0.2861
vn 0.3980 0.8266 -0.3979
vn 0.3985 0.8269 -0.3967
vn -0.3926 -0.6654 -0.6349
vn 0.3985 0.8269 0.3967
vn 0.3980 0.8266 0.3979
vn -0.6713 -0.5482 0.4989
vn -0.6713 -0.5482 -0.4989
vn -0.0000 1.0000 -0.0000
vn 0.8315 -0.0000 0.5556
vn 0.8315 -0.0000 -0.5556
vn 0.7071 -0.0000 0.7071
vn 0.7071 -0.0000 -0.7071
vn 0.5556 -0.0000 0.8315
vn -1.0000 -0.0000 -0.0000
vn 0.5556 -0.0000 -0.8315
vn 0.3827 -0.0000 0.9239
vn 0.9992 -0.0000 0.0410
vn 0.3827 -0.0000 -0.9239
vn 0.1951 -0.0000 0.9808
vn 0.1951 -0.0000 -0.9808
vn 0.0980 -0.0000 0.9952
vn 0.0980 -0.0000 -0.9952
vt 0.410323 0.863907
vt 0.760405 0.157014
vt 0.478162 0.866740
vt 0.278943 0.168926
vt 0.418342 0.866747
vt 0.317581 0.166396
vt 0.361659 0.866768
vt 0.354192 0.159946
vt 0.304970 0.866800
vt 0.390803 0.150948
vt 0.248277 0.866839
vt 0.427414 0.140637
vt 0.191581 0.866875
vt 0.464025 0.129827
vt 0.134888 0.866902
vt 0.500636 0.119034
vt 0.024730 0.863872
vt 0.024730 0.866890
vt 0.571794 0.099397
vt 0.078203 0.866910
vt 0.537248 0.108602
vt 0.531646 0.866747
vt 0.244396 0.166498
vt 0.588330 0.866768
vt 0.207785 0.160121
vt 0.645019 0.866800
vt 0.171174 0.151164
vt 0.701712 0.866838
vt 0.134563 0.140872
vt 0.758408 0.866876
vt 0.097952 0.130066
vt 0.815101 0.866903
vt 0.061341 0.119268
vt 0.787516 0.863940
vt 0.925259 0.866890
vt 0.944907 0.099606
vt 0.024730 0.108826
vt 0.871786 0.866910
vt 0.979453 0.108826
vt 0.760405 0.265616
vt 0.360052 0.656554
vt 0.278943 0.253704
vt 0.242582 0.422892
vt 0.317581 0.256233
vt 0.242582 0.404206
vt 0.354192 0.262683
vt 0.242582 0.386500
vt 0.390803 0.271681
vt 0.242582 0.368795
vt 0.427414 0.281992
vt 0.242582 0.351089
vt 0.464025 0.292802
vt 0.242582 0.333384
vt 0.500636 0.303596
vt 0.242582 0.315678
vt 0.360052 0.565339
vt 0.571794 0.323233
vt 0.242582 0.281265
vt 0.537248 0.314028
vt 0.242582 0.297972
vt 0.244396 0.256132
vt 0.242582 0.439599
vt 0.207785 0.262508
vt 0.242582 0.457305
vt 0.171174 0.271465
vt 0.242582 0.475010
vt 0.134563 0.281757
vt 0.242582 0.492716
vt 0.097952 0.292563
vt 0.242582 0.510421
vt 0.061341 0.303361
vt 0.242582 0.528127
vt 0.944907 0.323023
vt 0.242582 0.562540
vt 0.360052 0.745781
vt 0.024730 0.313804
vt 0.979453 0.313804
vt 0.242582 0.545833
vt 0.362852 0.385415
vt 0.242582 0.656554
vt 0.452080 0.385415
vt 0.360052 0.422892
vt 0.450442 0.404029
vt 0.360052 0.404206
vt 0.445302 0.420972
vt 0.360052 0.386500
vt 0.436956 0.436587
vt 0.360052 0.368795
vt 0.425724 0.450274
vt 0.360052 0.351089
vt 0.412037 0.461506
vt 0.360052 0.333384
vt 0.396422 0.469852
vt 0.360052 0.315678
vt 0.242582 0.565339
vt 0.362852 0.476629
vt 0.360052 0.281265
vt 0.379479 0.474992
vt 0.360052 0.297972
vt 0.450442 0.368788
vt 0.360052 0.439599
vt 0.445302 0.351845
vt 0.360052 0.457305
vt 0.436956 0.336230
vt 0.360052 0.475010
vt 0.425724 0.322543
vt 0.360052 0.492716
vt 0.412037 0.311311
vt 0.360052 0.510421
vt 0.396422 0.302965
vt 0.360052 0.528127
vt 0.362852 0.296187
vt 0.360052 0.562540
vt 0.242582 0.745781
vt 0.379479 0.297825
vt 0.360052 0.545833
vt 0.441545 0.795694
vt 0.971144 0.588006
vt 0.424588 0.795694
vt 0.971144 0.571050
vt 0.410326 0.829462
vt 0.792458 0.472799
vt 0.683920 0.519383
vt 0.585687 0.786457
vt 0.395121 0.910506
vt 0.478162 0.893098
vt 0.469174 0.900402
vt 0.569983 0.786458
vt 0.380622 0.910506
vt 0.418342 0.893091
vt 0.528592 0.900402
vt 0.522363 0.786514
vt 0.334918 0.910506
vt 0.361659 0.893070
vt 0.584868 0.900402
vt 0.470150 0.786507
vt 0.285296 0.910506
vt 0.304970 0.893037
vt 0.641174 0.900402
vt 0.417823 0.786507
vt 0.235490 0.910506
vt 0.248277 0.892999
vt 0.697503 0.900402
vt 0.365495 0.786507
vt 0.185685 0.910506
vt 0.191581 0.892962
vt 0.753854 0.900402
vt 0.313168 0.786507
vt 0.135879 0.910506
vt 0.134888 0.892935
vt 0.810220 0.900402
vt 0.260840 0.786507
vt 0.086074 0.910506
vt 0.179571 0.795695
vt 0.181139 0.792895
vt 0.971144 0.326032
vt 0.024730 0.910506
vt 0.024733 0.829462
vt 0.024730 0.892948
vt 0.683902 0.296187
vt 0.919932 0.900402
vt 0.911930 0.903202
vt 0.078203 0.892928
vt 0.866588 0.900402
vt 0.208513 0.786507
vt 0.036268 0.910506
vt 0.531646 0.893091
vt 0.416080 0.900402
vt 0.434591 0.910506
vt 0.627006 0.786507
vt 0.679333 0.786507
vt 0.484397 0.910506
vt 0.588330 0.893070
vt 0.359794 0.900402
vt 0.731661 0.786507
vt 0.534202 0.910506
vt 0.645019 0.893037
vt 0.303488 0.900402
vt 0.783988 0.786507
vt 0.584008 0.910506
vt 0.701712 0.893000
vt 0.247159 0.900402
vt 0.836316 0.786507
vt 0.633813 0.910506
vt 0.758408 0.892962
vt 0.190808 0.900402
vt 0.888643 0.786507
vt 0.683619 0.910506
vt 0.815101 0.892935
vt 0.134442 0.900402
vt 0.787519 0.829530
vt 0.925259 0.892948
vt 0.683902 0.737716
vt 0.024730 0.900402
vt 0.024730 0.903202
vt 0.680200 0.795695
vt 0.968345 0.792895
vt 0.744963 0.910506
vt 0.971144 0.826662
vt 0.940970 0.786507
vt 0.733425 0.910506
vt 0.871786 0.892928
vt 0.078074 0.900402
vt 0.804229 0.311110
vt 0.818962 0.743953
vt 0.473508 0.907706
vt 0.798188 0.325294
vt 0.456830 0.907706
vt 0.831064 0.743953
vt 0.810270 0.325294
vt 0.469174 0.895898
vt 0.816000 0.311110
vt 0.893901 0.907706
vt 0.834026 0.311110
vt 0.919932 0.895898
vt 0.911930 0.907706
vt 0.528592 0.895898
vt 0.829286 0.689851
vt 0.522952 0.907706
vt 0.820740 0.689851
vt 0.829428 0.634833
vt 0.584868 0.895898
vt 0.820598 0.634833
vt 0.577530 0.907706
vt 0.829650 0.579752
vt 0.641174 0.895898
vt 0.820376 0.579752
vt 0.632167 0.907706
vt 0.829935 0.524647
vt 0.697503 0.895898
vt 0.820091 0.524647
vt 0.686811 0.907706
vt 0.830262 0.469513
vt 0.753854 0.895898
vt 0.741464 0.907706
vt 0.819764 0.469513
vt 0.810220 0.895898
vt 0.830608 0.414349
vt 0.819417 0.414349
vt 0.796129 0.907706
vt 0.830950 0.359159
vt 0.866588 0.895898
vt 0.819075 0.359159
vt 0.850810 0.907706
vt 0.813201 0.749895
vt 0.024730 0.895898
vt 0.024730 0.907706
vt 0.795258 0.749895
vt 0.042758 0.907706
vt 0.808484 0.372840
vt 0.416080 0.895898
vt 0.799974 0.372840
vt 0.413763 0.907706
vt 0.359129 0.907706
vt 0.799834 0.427650
vt 0.359794 0.895898
vt 0.808624 0.427650
vt 0.799613 0.482479
vt 0.304492 0.907706
vt 0.808845 0.482479
vt 0.303488 0.895898
vt 0.799330 0.537332
vt 0.249849 0.907706
vt 0.809129 0.537332
vt 0.247159 0.895898
vt 0.799004 0.592215
vt 0.195196 0.907706
vt 0.809454 0.592215
vt 0.190808 0.895898
vt 0.140530 0.907706
vt 0.798659 0.647127
vt 0.134442 0.895898
vt 0.809799 0.647127
vt 0.085849 0.907706
vt 0.798319 0.702065
vt 0.810140 0.702065
vt 0.078074 0.895898
vt 0.704152 0.472799
vt 0.695682 0.525864
vt 0.441545 0.822118
vt 0.792458 0.561105
vt 0.695682 0.512903
vt 0.424588 0.822118
vt 0.473508 0.903202
vt 0.569983 0.760046
vt 0.456830 0.903202
vt 0.585687 0.760046
vt 0.695682 0.303338
vt 0.893901 0.903202
vt 0.150417 0.822118
vt 0.181139 0.753609
vt 0.522952 0.903202
vt 0.522363 0.759989
vt 0.577530 0.903202
vt 0.470150 0.759996
vt 0.632167 0.903202
vt 0.417823 0.759996
vt 0.686811 0.903202
vt 0.365495 0.759996
vt 0.741464 0.903202
vt 0.313168 0.759996
vt 0.796129 0.903202
vt 0.260840 0.759996
vt 0.850810 0.903202
vt 0.208513 0.759996
vt 0.695682 0.730566
vt 0.042758 0.903202
vt 0.709354 0.822118
vt 0.968345 0.753609
vt 0.413763 0.903202
vt 0.627006 0.759996
vt 0.359129 0.903202
vt 0.679333 0.759996
vt 0.304492 0.903202
vt 0.731661 0.759996
vt 0.249849 0.903202
vt 0.783988 0.759996
vt 0.195196 0.903202
vt 0.836316 0.759996
vt 0.140530 0.903202
vt 0.888643 0.759996
vt 0.085849 0.903202
vt 0.940970 0.759996
vt 0.024730 0.588006
vt 0.973772 0.588006
vt 0.239699 0.586633
vt 0.395121 0.913134
vt 0.239783 0.572134
vt 0.380622 0.913134
vt 0.024730 0.571050
vt 0.973772 0.571050
vt 0.024730 0.326032
vt 0.973772 0.326032
vt 0.024730 0.913134
vt 0.235777 0.526605
vt 0.334918 0.913134
vt 0.221373 0.479120
vt 0.285296 0.913134
vt 0.197895 0.435196
vt 0.235490 0.913134
vt 0.166298 0.396695
vt 0.185685 0.913134
vt 0.127798 0.365099
vt 0.135879 0.913134
vt 0.083874 0.341621
vt 0.086074 0.913134
vt 0.036213 0.327163
vt 0.036268 0.913134
vt 0.024730 0.826662
vt 0.744963 0.913134
vt 0.973772 0.826662
vt 0.434591 0.913134
vt 0.235831 0.625913
vt 0.221373 0.673574
vt 0.484397 0.913134
vt 0.197895 0.717498
vt 0.534202 0.913134
vt 0.166298 0.755998
vt 0.584008 0.913134
vt 0.127798 0.787595
vt 0.633813 0.913134
vt 0.083874 0.811073
vt 0.683619 0.913134
vt 0.036212 0.825531
vt 0.733425 0.913134
s 1
f 57/121/1 1/1/2 9/17/2 74/158/3
f 89/191/3 17/34/2 1/1/2 57/121/1
f 16/33/4 34/71/4 36/76/4 18/37/4
f 10/21/4 28/59/4 26/54/4 8/16/4
f 69/146/5 7/13/6 6/11/7 67/142/8
f 80/173/9 12/24/10 13/26/11 82/177/12
f 71/150/13 8/15/14 7/13/6 69/146/5
f 63/134/15 4/7/16 3/5/17 61/130/18
f 82/177/12 13/26/11 14/28/19 84/181/20
f 75/163/21 10/20/22 8/15/14 71/150/13
f 84/181/20 14/28/19 15/30/23 86/185/24
f 74/159/25 9/18/25 10/20/22 75/163/21
f 61/130/18 3/5/17 2/3/26 59/126/27
f 86/185/24 15/30/23 16/32/28 88/189/29
f 77/167/30 11/22/31 12/24/10 80/173/9
f 59/126/27 2/3/26 11/22/31 77/167/30
f 88/189/29 16/32/28 18/38/32 92/202/33
f 65/138/34 5/9/35 4/7/16 63/134/15
f 92/202/33 18/38/32 17/35/36 89/192/36
f 67/142/8 6/11/7 5/9/35 65/138/34
f 79/172/37 162/355/37 161/352/38 78/169/38
f 19/41/39 37/80/39 45/95/39 27/56/39
f 28/60/40 46/99/40 44/94/41 26/55/41
f 9/19/4 27/57/4 28/59/4 10/21/4
f 18/39/4 36/77/4 35/73/4 17/36/4
f 17/36/4 35/73/4 19/40/4 1/2/4
f 4/8/4 22/46/4 21/44/4 3/6/4
f 2/4/4 20/42/4 29/61/4 11/23/4
f 11/23/4 29/61/4 30/63/4 12/25/4
f 5/10/4 23/48/4 22/46/4 4/8/4
f 12/25/4 30/63/4 31/65/4 13/27/4
f 6/12/4 24/50/4 23/48/4 5/10/4
f 13/27/4 31/65/4 32/67/4 14/29/4
f 3/6/4 21/44/4 20/42/4 2/4/4
f 7/14/4 25/52/4 24/50/4 6/12/4
f 14/29/4 32/67/4 33/69/4 15/31/4
f 1/2/4 19/40/4 27/57/4 9/19/4
f 8/16/4 26/54/4 25/52/4 7/14/4
f 15/31/4 33/69/4 34/71/4 16/33/4
f 38/81/4 39/83/4 40/85/4 41/87/4 42/89/4 43/91/4 44/93/4 46/98/4 45/96/4 37/79/4
f 38/81/4 37/79/4 53/112/4 54/115/4 52/110/4 51/108/4 50/106/4 49/104/4 48/102/4 47/100/4
f 34/72/42 52/111/42 54/116/43 36/78/43
f 27/58/44 45/97/44 46/99/40 28/60/40
f 36/78/43 54/116/43 53/113/45 35/74/45
f 35/75/39 53/114/39 37/80/39 19/41/39
f 22/47/46 40/86/46 39/84/47 21/45/47
f 20/43/48 38/82/48 47/101/49 29/62/49
f 29/62/49 47/101/49 48/103/50 30/64/50
f 23/49/51 41/88/51 40/86/46 22/47/46
f 30/64/50 48/103/50 49/105/52 31/66/52
f 24/51/53 42/90/53 41/88/51 23/49/51
f 31/66/52 49/105/52 50/107/54 32/68/54
f 25/53/55 43/92/55 42/90/53 24/51/53
f 32/68/54 50/107/54 51/109/56 33/70/56
f 26/55/41 44/94/41 43/92/55 25/53/55
f 21/45/47 39/84/47 38/82/48 20/43/48
f 33/70/56 51/109/56 52/111/42 34/72/42
f 128/278/57 57/122/1 129/281/57
f 82/178/58 119/261/59 117/256/60 80/174/61
f 78/169/38 161/352/38 149/327/62 58/125/62
f 74/160/3 132/288/63 129/282/57 57/123/1
f 134/294/64 101/224/65 99/219/66 133/292/67
f 147/322/68 126/274/69 113/249/70 140/307/71
f 71/151/72 108/237/73 110/242/74 75/164/75
f 92/203/76 127/277/77 125/272/78 88/190/79
f 138/302/80 109/240/81 107/235/82 137/300/83
f 142/312/84 116/254/85 118/259/86 143/314/87
f 61/131/88 98/217/89 100/222/90 63/135/91
f 80/174/61 117/256/60 114/251/92 77/168/93
f 140/306/63 89/193/3 57/123/1 128/279/57
f 133/292/67 99/219/66 93/206/94 130/284/95
f 146/320/96 124/270/97 126/274/69 147/322/68
f 69/147/98 106/234/99 108/237/73 71/151/72
f 88/190/79 125/272/78 123/269/100 86/186/101
f 137/300/83 107/235/82 105/232/102 136/298/103
f 141/310/104 115/253/105 116/254/85 142/312/84
f 59/127/106 95/211/107 98/217/89 61/131/88
f 145/318/108 122/267/109 124/270/97 146/320/96
f 62/133/110 153/336/110 154/338/111 64/137/111
f 94/207/112 93/204/113 95/210/114
f 95/209/114 93/205/113 99/220/115 98/218/116
f 98/218/116 99/220/115 101/223/117 100/221/118
f 100/221/118 101/223/117 103/227/119 102/225/120
f 102/225/120 103/227/119 105/231/121 104/229/122
f 104/229/122 105/231/121 107/236/123 106/233/124
f 106/233/124 107/236/123 109/239/125 108/238/126
f 108/238/126 109/239/125 111/243/127 110/241/128
f 110/241/128 111/243/127 96/212/129 97/214/129
f 115/252/130 114/250/131 117/257/132 116/255/133
f 116/255/133 117/257/132 119/260/134 118/258/135
f 118/258/135 119/260/134 121/264/136 120/262/137
f 120/262/137 121/264/136 123/268/138 122/266/139
f 122/266/139 123/268/138 125/273/140 124/271/141
f 124/271/141 125/273/140 127/276/142 126/275/143
f 126/275/143 127/276/142 112/245/144 113/248/144
f 94/207/112 95/210/114 114/250/131 115/252/130
f 130/284/95 93/206/94 94/208/145 131/286/146
f 89/194/147 112/246/147 127/277/77 92/203/76
f 63/135/91 100/222/90 102/226/148 65/139/149
f 143/314/87 118/259/86 120/263/150 144/316/151
f 139/304/152 111/244/153 109/240/81 138/302/80
f 131/286/146 94/208/145 115/253/105 141/310/104
f 75/164/75 110/242/74 97/215/154 74/161/154
f 77/168/93 114/251/92 95/211/107 59/127/106
f 135/296/155 103/228/156 101/224/65 134/294/64
f 84/182/157 121/265/158 119/261/59 82/178/58
f 132/289/159 96/213/159 111/244/153 139/304/152
f 65/139/149 102/226/148 104/230/160 67/143/161
f 144/316/151 120/263/150 122/267/109 145/318/108
f 140/307/71 113/249/70 112/247/162 89/195/162
f 74/162/163 97/216/163 96/213/159 132/289/159
f 136/298/103 105/232/102 103/228/156 135/296/155
f 86/186/101 123/269/100 121/265/158 84/182/157
f 67/143/161 104/230/160 106/234/99 69/147/98
f 55/117/164 128/280/57 129/283/57 56/119/164
f 60/128/164 130/285/164 131/287/164 58/124/164
f 56/119/164 129/283/57 132/290/63 73/154/164
f 62/132/164 133/293/164 130/285/164 60/128/164
f 64/136/164 134/295/164 133/293/164 62/132/164
f 66/140/164 135/297/164 134/295/164 64/136/164
f 68/144/164 136/299/164 135/297/164 66/140/164
f 70/148/164 137/301/164 136/299/164 68/144/164
f 72/152/164 138/303/164 137/301/164 70/148/164
f 76/165/164 139/305/164 138/303/164 72/152/164
f 73/155/164 132/291/63 139/305/164 76/165/164
f 90/196/164 140/308/63 128/280/57 55/117/164
f 78/170/164 141/311/164 142/313/164 79/171/164
f 79/171/164 142/313/164 143/315/164 81/175/164
f 81/175/164 143/315/164 144/317/164 83/179/164
f 83/179/164 144/317/164 145/319/164 85/183/164
f 85/183/164 145/319/164 146/321/164 87/187/164
f 87/187/164 146/321/164 147/323/164 91/200/164
f 91/200/164 147/323/164 140/309/63 90/197/164
f 58/124/164 131/287/164 141/311/164 78/170/164
f 150/328/164 151/330/164 152/332/164 159/347/164 158/345/164 157/343/164 156/341/164 155/339/164 154/337/164 153/335/164
f 148/324/164 151/330/164 150/328/164 149/326/164
f 149/326/164 161/353/164 162/354/164 163/356/164 164/358/164 165/360/164 166/362/164 167/364/164 160/349/164 148/324/164
f 64/137/111 154/338/111 155/340/165 66/141/165
f 81/176/166 163/357/166 162/355/37 79/172/37
f 66/141/165 155/340/165 156/342/167 68/145/167
f 83/180/168 164/359/168 163/357/166 81/176/166
f 68/145/167 156/342/167 157/344/169 70/149/169
f 56/120/170 151/331/170 148/325/170 55/118/170
f 85/184/171 165/361/171 164/359/168 83/180/168
f 70/149/169 157/344/169 158/346/172 72/153/172
f 58/125/62 149/327/62 150/329/173 60/129/173
f 87/188/174 166/363/174 165/361/171 85/184/171
f 72/153/172 158/346/172 159/348/175 76/166/175
f 73/156/170 152/333/170 151/331/170 56/120/170
f 91/201/176 167/365/176 166/363/174 87/188/174
f 76/166/175 159/348/175 152/334/177 73/157/177
f 60/129/173 150/329/173 153/336/110 62/133/110
f 90/198/178 160/350/178 167/365/176 91/201/176
f 55/118/170 148/325/170 160/351/170 90/199/170
